<?xml version="1.0" encoding="utf-8"?>
<!-- Generator: Adobe Illustrator 16.0.4, SVG Export Plug-In . SVG Version: 6.00 Build 0)  -->
<!DOCTYPE svg PUBLIC "-//W3C//DTD SVG 1.1//EN" "http://www.w3.org/Graphics/SVG/1.1/DTD/svg11.dtd">
<svg version="1.1" id="Capa_1" xmlns="http://www.w3.org/2000/svg" xmlns:xlink="http://www.w3.org/1999/xlink" x="0px" y="0px"
	 width="370px" height="78px" viewBox="0 0 370 78" enable-background="new 0 0 370 78" xml:space="preserve">
<g>
	<g>
		<path fill="#009639" d="M25.635,19.061c-4.771,12.714-12.301,24.084-21.875,33.37C1.442,54.679,0,57.822,0,61.304
			c0,6.834,5.552,12.375,12.402,12.375c3.517,0,6.69-1.464,8.947-3.812c6.479-6.331,12.214-13.417,17.071-21.11
			C32.842,39.508,28.532,29.523,25.635,19.061z"/>
		<path fill="#0076CE" d="M40.701,0c5.821,0,10.702,4.001,12.039,9.397c4.191,16.631,12.959,31.451,24.9,43.033
			c2.318,2.248,3.76,5.392,3.76,8.873c0,6.834-5.552,12.375-12.402,12.375c-3.518,0-6.69-1.464-8.947-3.812
			C45.024,55.184,33.98,36.458,28.686,15.452c-0.252-0.983-0.386-2.015-0.386-3.076C28.3,5.541,33.852,0,40.701,0z"/>
	</g>
	<g>
		<path fill="#004C97" d="M271.46,19.566c-4.894,0-9.591,1.15-12.411,2.246l2.267,6.234c2.22-0.892,5.84-1.906,8.961-1.906
			c3.469,0,5.229,1.302,5.229,3.87v1.377c-8.967,0.496-18.269,2.174-18.269,10.808c0,6.794,5.143,10.385,14.874,10.385
			c5.349,0,10.083-1.16,12.272-2.252V31.193C284.383,23.152,280.397,19.566,271.46,19.566z M275.506,45.607
			c-0.638,0.231-2.288,0.517-3.691,0.517c-3.644,0-5.819-1.558-5.819-4.166c0-4.009,4.389-4.533,9.51-4.764V45.607z"/>
		<path fill="#004C97" d="M134.413,19.566c-5.059,0-9.79,0.782-13.691,2.263V51.87h9.469V27.548
			c0.874-0.351,2.159-0.579,3.454-0.579c1.204,0,2.527,0.207,3.502,0.545l1.705-7.617C137.825,19.74,136.265,19.566,134.413,19.566z
			"/>
		<path fill="#004C97" d="M204.507,34.388c0-9.143-5.405-14.821-14.104-14.821c-9.18,0-15.11,6.468-15.11,16.478
			c0,10.199,6.266,16.536,16.352,16.536c4.512,0,9.316-0.876,12.293-2.237l-2.617-6.944c-2.417,1.173-5.812,1.896-8.907,1.896
			c-4.267,0-7.122-1.933-7.919-5.47l19.909-2.608C204.507,36.261,204.507,35.35,204.507,34.388z M183.872,34.077
			c0.033-4.983,2.409-7.937,6.294-7.937c3.273,0,5.254,2.378,5.228,6.48L183.872,34.077z"/>
		<path fill="#004C97" d="M221.798,19.566c-4.738,0-9.54,0.883-12.273,2.252v42.769h9.469v-13.01
			c0.911,0.305,2.746,0.588,4.104,0.588c9.452,0,14.874-5.897,14.874-16.181C237.972,25.397,232.228,19.566,221.798,19.566z
			 M222.034,45.118c-1.166,0-2.503-0.284-3.04-0.523V27.252c0.601-0.24,1.817-0.52,2.981-0.52c4.21,0,6.529,3.286,6.529,9.252
			C228.504,41.703,226.085,45.118,222.034,45.118z"/>
		<rect x="243.048" y="5.726" fill="#004C97" width="9.468" height="46.145"/>
		<path fill="#004C97" d="M101.718,19.566c-4.894,0-9.591,1.15-12.411,2.246l2.267,6.234c2.22-0.892,5.84-1.906,8.961-1.906
			c3.469,0,5.229,1.302,5.229,3.87v1.377c-8.967,0.496-18.269,2.174-18.269,10.808c0,6.794,5.143,10.385,14.874,10.385
			c5.349,0,10.083-1.16,12.272-2.252V31.193C114.64,23.152,110.655,19.566,101.718,19.566z M105.764,45.607
			c-0.638,0.231-2.288,0.517-3.691,0.517c-3.644,0-5.819-1.558-5.819-4.166c0-4.009,4.388-4.533,9.51-4.764V45.607z"/>
		<path fill="#004C97" d="M303.624,19.566c-4.917,0-9.102,0.719-13.16,2.263V51.87h9.468V27.609c0.91-0.39,2.526-0.699,3.81-0.699
			c2.946,0,4.637,1.604,4.637,4.401V51.87h9.468V30.188C317.847,23.041,313.194,19.566,303.624,19.566z"/>
		<path fill="#004C97" d="M156.052,19.566c-4.917,0-9.102,0.719-13.159,2.263V51.87h9.468V27.609c0.91-0.39,2.527-0.699,3.809-0.699
			c2.947,0,4.637,1.604,4.637,4.401V51.87h9.468V30.188C170.275,23.041,165.623,19.566,156.052,19.566z"/>
		<path fill="#004C97" d="M334.783,52.402c-6.316,0-9.256-3.375-9.256-10.622V27.265h-3.784v-6.988h3.784v-6.837l9.231-2.581v9.418
			h5.558v6.988h-5.558v13.807c0,2.018,1.103,3.041,3.277,3.041c0.762,0,1.63-0.174,2.28-0.452v7.73
			C339.24,51.899,337.033,52.402,334.783,52.402z"/>
	</g>
	<g>
		<path fill="#0076CE" d="M231.899,74.359c-2.765,0-4.156-1.125-4.156-3.017c0-2.677,2.854-3.159,5.762-3.319v-0.607
			c0-1.214-0.803-1.642-2.034-1.642c-0.91,0-2.016,0.286-2.659,0.589l-0.499-1.338c0.767-0.34,2.069-0.679,3.354-0.679
			c2.302,0,3.693,0.893,3.693,3.266v6.068C234.664,74.056,233.255,74.359,231.899,74.359z M233.505,69.326
			c-1.962,0.107-3.925,0.268-3.925,1.981c0,1.018,0.785,1.642,2.266,1.642c0.625,0,1.356-0.106,1.659-0.25V69.326z"/>
		<path fill="#0076CE" d="M237.625,74.163V60.152h1.962v14.011H237.625z"/>
		<path fill="#0076CE" d="M252.146,74.163h-2.016l-1.713-6.104c-0.178-0.643-0.285-1.392-0.285-1.392h-0.036
			c0,0-0.125,0.749-0.303,1.392l-1.713,6.104h-2.016l-2.854-9.62h1.944l1.659,6.354c0.178,0.679,0.268,1.517,0.268,1.517h0.036
			c0,0,0.143-0.838,0.321-1.517l1.748-6.354h1.838l1.749,6.354c0.178,0.679,0.321,1.517,0.321,1.517h0.036
			c0,0,0.089-0.838,0.268-1.517l1.659-6.354H255L252.146,74.163z"/>
		<path fill="#0076CE" d="M260.047,74.359c-2.765,0-4.157-1.125-4.157-3.017c0-2.677,2.854-3.159,5.762-3.319v-0.607
			c0-1.214-0.803-1.642-2.034-1.642c-0.91,0-2.016,0.286-2.658,0.589l-0.5-1.338c0.767-0.34,2.069-0.679,3.354-0.679
			c2.301,0,3.692,0.893,3.692,3.266v6.068C262.812,74.056,261.403,74.359,260.047,74.359z M261.653,69.326
			c-1.962,0.107-3.925,0.268-3.925,1.981c0,1.018,0.785,1.642,2.266,1.642c0.625,0,1.356-0.106,1.659-0.25V69.326z"/>
		<path fill="#0076CE" d="M268.93,78h-2.051l1.445-3.837l-3.604-9.62h2.176l2.087,6.532c0.214,0.679,0.339,1.446,0.339,1.446h0.036
			c0,0,0.107-0.786,0.321-1.446l2.105-6.532h2.176L268.93,78z"/>
		<path fill="#0076CE" d="M277.742,74.359c-1.124,0-2.301-0.304-2.997-0.679l0.66-1.499c0.5,0.304,1.552,0.625,2.284,0.625
			c1.052,0,1.748-0.518,1.748-1.32c0-0.875-0.731-1.214-1.712-1.571c-1.285-0.481-2.729-1.071-2.729-2.874
			c0-1.588,1.23-2.694,3.372-2.694c1.16,0,2.123,0.286,2.801,0.679l-0.606,1.356c-0.428-0.268-1.285-0.571-1.98-0.571
			c-1.017,0-1.588,0.535-1.588,1.23c0,0.876,0.713,1.179,1.659,1.535c1.337,0.5,2.818,1.054,2.818,2.928
			C281.471,73.234,280.15,74.359,277.742,74.359z"/>
		<path fill="#0076CE" d="M290.978,74.359c-1.249,0-2.479-0.304-3.229-0.679V60.152h1.944v4.641
			c0.464-0.214,1.213-0.393,1.873-0.393c2.48,0,4.157,1.785,4.157,4.729C295.724,72.753,293.85,74.359,290.978,74.359z
			 M291.228,65.917c-0.535,0-1.16,0.125-1.534,0.321v6.318c0.286,0.125,0.838,0.25,1.392,0.25c1.552,0,2.694-1.071,2.694-3.534
			C293.779,67.166,292.78,65.917,291.228,65.917z"/>
		<path fill="#0076CE" d="M302.037,66.042c-0.285-0.071-0.624-0.106-0.981-0.106c-0.553,0-1.142,0.089-1.516,0.25v7.978h-1.945
			v-9.138c0.928-0.393,2.301-0.679,3.729-0.679c0.428,0,0.803,0.018,1.088,0.071L302.037,66.042z"/>
		<path fill="#0076CE" d="M311.475,69.309l-6.387,0.893c0.196,1.73,1.32,2.605,2.944,2.605c0.963,0,1.998-0.232,2.658-0.59
			l0.571,1.464c-0.75,0.393-2.034,0.679-3.354,0.679c-3.033,0-4.728-1.946-4.728-5.016c0-2.945,1.641-4.997,4.335-4.997
			c2.498,0,3.978,1.643,3.978,4.229C311.492,68.809,311.492,69.059,311.475,69.309z M307.478,65.774
			c-1.499,0-2.479,1.143-2.516,3.142l4.656-0.643C309.601,66.596,308.763,65.774,307.478,65.774z"/>
		<path fill="#0076CE" d="M316.914,74.359c-2.765,0-4.156-1.125-4.156-3.017c0-2.677,2.854-3.159,5.762-3.319v-0.607
			c0-1.214-0.803-1.642-2.034-1.642c-0.91,0-2.016,0.286-2.658,0.589l-0.5-1.338c0.767-0.34,2.069-0.679,3.354-0.679
			c2.301,0,3.692,0.893,3.692,3.266v6.068C319.68,74.056,318.271,74.359,316.914,74.359z M318.52,69.326
			c-1.962,0.107-3.925,0.268-3.925,1.981c0,1.018,0.785,1.642,2.266,1.642c0.625,0,1.356-0.106,1.659-0.25V69.326z"/>
		<path fill="#0076CE" d="M325.762,74.288c-1.695,0-2.641-0.946-2.641-2.82v-5.461h-1.302v-1.464h1.302v-2.231l1.909-0.589v2.82
			h1.945v1.464h-1.945v5.354c0,0.874,0.571,1.213,1.285,1.213c0.232,0,0.5-0.053,0.66-0.124v1.623
			C326.743,74.181,326.262,74.288,325.762,74.288z"/>
		<path fill="#0076CE" d="M334.378,74.163v-6.39c0-1.231-0.785-1.838-2.069-1.838c-0.589,0-1.249,0.179-1.713,0.446v7.781h-1.944
			V60.152h1.944V64.9c0.589-0.286,1.392-0.518,2.159-0.518c2.247,0,3.585,1.142,3.585,3.229v6.551H334.378z"/>
		<path fill="#0076CE" d="M342.244,74.359c-2.766,0-4.157-1.125-4.157-3.017c0-2.677,2.854-3.159,5.762-3.319v-0.607
			c0-1.214-0.803-1.642-2.034-1.642c-0.91,0-2.016,0.286-2.658,0.589l-0.5-1.338c0.767-0.34,2.069-0.679,3.354-0.679
			c2.301,0,3.693,0.893,3.693,3.266v6.068C345.009,74.056,343.6,74.359,342.244,74.359z M343.85,69.326
			c-1.962,0.107-3.925,0.268-3.925,1.981c0,1.018,0.785,1.642,2.266,1.642c0.625,0,1.356-0.106,1.659-0.25V69.326z"/>
		<path fill="#0076CE" d="M351.145,74.359c-1.249,0-2.479-0.304-3.229-0.679V60.152h1.944v4.641
			c0.464-0.214,1.213-0.393,1.873-0.393c2.48,0,4.157,1.785,4.157,4.729C355.891,72.753,354.017,74.359,351.145,74.359z
			 M351.395,65.917c-0.535,0-1.16,0.125-1.534,0.321v6.318c0.285,0.125,0.839,0.25,1.392,0.25c1.552,0,2.693-1.071,2.693-3.534
			C353.945,67.166,352.946,65.917,351.395,65.917z"/>
		<path fill="#0076CE" d="M357.816,74.163V60.152h1.962v14.011H357.816z"/>
		<path fill="#0076CE" d="M369.982,69.309l-6.387,0.893c0.196,1.73,1.32,2.605,2.944,2.605c0.963,0,1.998-0.232,2.658-0.59
			l0.571,1.464c-0.749,0.393-2.034,0.679-3.354,0.679c-3.033,0-4.728-1.946-4.728-5.016c0-2.945,1.642-4.997,4.335-4.997
			c2.498,0,3.979,1.643,3.979,4.229C370,68.809,370,69.059,369.982,69.309z M365.986,65.774c-1.499,0-2.479,1.143-2.516,3.142
			l4.657-0.643C368.109,66.596,367.271,65.774,365.986,65.774z"/>
	</g>
</g>
</svg>
